Coordinates
version=1
nRows=14
nColumns=40
inDegrees=yes

Units are S.I. units (second, meters, Newtons, ...)
If the header above contains a line with 'inDegrees', this indicates whether rotational values are in degrees (yes) or radians (no).

endheader
time	pelvis_tilt	pelvis_list	pelvis_rotation	pelvis_tx	pelvis_ty	pelvis_tz	hip_flexion_r	hip_adduction_r	hip_rotation_r	knee_angle_r	knee_angle_r_beta	ankle_angle_r	subtalar_angle_r	mtp_angle_r	hip_flexion_l	hip_adduction_l	hip_rotation_l	knee_angle_l	knee_angle_l_beta	ankle_angle_l	subtalar_angle_l	mtp_angle_l	lumbar_extension	lumbar_bending	lumbar_rotation	arm_flex_r	arm_add_r	arm_rot_r	elbow_flex_r	pro_sup_r	wrist_flex_r	wrist_dev_r	arm_flex_l	arm_add_l	arm_rot_l	elbow_flex_l	pro_sup_l	wrist_flex_l	wrist_dev_l
      4.01700000	      7.97581730	      3.11262416	      4.10139565	      0.05132679	      1.32526676	     -0.00453787	     33.36973630	     -5.04165917	      1.39058054	     75.44393891	      1.31674513	    -24.36640874	    -24.71130812	      0.00000000	     47.72272751	      2.50203273	      1.12677433	     63.65008859	      1.11090362	     -7.62445779	    -18.13518365	      0.00000000	    -65.62653017	      1.37364064	     -2.39130096	     52.34368268	     14.67679589	    -63.98798867	     52.11601604	     81.31475860	      0.00000000	      0.00000000	     61.17432935	     16.77196962	    -60.18559286	     47.46395243	     64.65733793	      0.00000000	      0.00000000
      4.03300000	      8.07340004	      2.41469968	      3.25842005	      0.05145158	      1.32526476	     -0.00394255	     35.38802134	     -4.09983499	      1.66703815	     79.17445771	      1.38185497	    -23.51619661	    -24.86753813	      0.00000000	     44.93569112	      1.27011538	      0.84355522	     59.58650664	      1.03998073	     -8.72212576	    -17.32132549	      0.00000000	    -65.68337097	      1.34490875	     -1.47479212	     52.43439534	     14.92211839	    -63.86967235	     52.33261863	     81.43470398	      0.00000000	      0.00000000	     60.93120557	     16.53093501	    -60.30974282	     47.44617281	     64.54092450	      0.00000000	      0.00000000
      4.05000000	      8.10007020	      1.69844296	      2.23680300	      0.05154399	      1.32521560	     -0.00315357	     37.55197208	     -2.95062305	      2.17624811	     82.61866696	      1.44196776	    -22.82172029	    -24.55036664	      0.00000000	     42.08514741	     -0.07235135	      0.36916060	     55.57558160	      0.96997688	     -9.48979668	    -16.57993002	      0.00000000	    -65.68343887	      1.14551395	     -0.44300944	     52.51110831	     15.12897502	    -63.79607864	     52.56623054	     81.74587227	      0.00000000	      0.00000000	     60.68288349	     16.27945392	    -60.33455262	     47.32191968	     64.21568306	      0.00000000	      0.00000000
      4.06700000	      7.99011159	      0.79934597	      1.80108162	      0.05156779	      1.32490019	     -0.00309680	     39.80698513	     -2.05593551	      1.93706966	     85.83969233	      1.49818526	    -22.04708323	    -24.53495845	      0.00000000	     39.44872908	     -1.07994429	      0.55579923	     51.69693831	      0.90228179	    -10.94401665	    -15.90684488	      0.00000000	    -65.54214902	      1.52641781	      0.51827303	     52.56803943	     15.24447963	    -63.62848445	     52.62997798	     81.60858681	      0.00000000	      0.00000000	     60.37386487	     16.05352971	    -60.30861676	     47.27874773	     64.05053405	      0.00000000	      0.00000000
      4.08300000	      7.85196216	      0.01546566	      1.19341394	      0.05158817	      1.32452737	     -0.00275605	     42.18749053	     -1.13881619	      1.86049779	     88.85461929	      1.55080566	    -21.29102915	    -24.43071608	      0.00000000	     36.71261624	     -2.13680196	      0.44913363	     47.84518654	      0.83505604	    -12.41690860	    -15.20854645	      0.00000000	    -65.37713287	      1.67713264	      1.47631558	     52.57236076	     15.37696589	    -63.51835331	     52.75081208	     81.59738738	      0.00000000	      0.00000000	     60.06686353	     15.76449625	    -60.20790003	     47.11059551	     63.90571564	      0.00000000	      0.00000000
      4.10000000	      7.71955582	     -0.65133355	      0.48933638	      0.05151043	      1.32416986	     -0.00234057	     44.59919202	     -0.24661642	      1.90415242	     91.61641463	      1.59900808	    -20.50838133	    -24.15426856	      0.00000000	     34.01127113	     -3.22333749	     -0.05162749	     44.20230990	      0.77147584	    -13.99312158	    -14.47193296	      0.00000000	    -65.25216914	      1.67121315	      2.39194811	     52.60681310	     15.53988051	    -63.39911826	     52.94848542	     81.67227933	      0.00000000	      0.00000000	     59.82021356	     15.50224185	    -60.02112599	     46.90056321	     63.70244054	      0.00000000	      0.00000000
      4.11700000	      7.50783049	     -1.33850803	     -0.05098405	      0.05144721	      1.32364424	     -0.00202224	     47.09864447	      0.59531998	      1.76522140	     94.09038228	      1.64218697	    -19.76751953	    -23.94803518	      0.00000000	     31.52890328	     -4.22501514	     -0.40763767	     40.91378480	      0.71408025	    -15.57871376	    -13.82529960	      0.00000000	    -65.05281824	      1.77566344	      3.27083167	     52.61611225	     15.63202848	    -63.34114824	     53.11874339	     81.80034259	      0.00000000	      0.00000000	     59.55240068	     15.26921452	    -59.85756550	     46.74392714	     63.52024679	      0.00000000	      0.00000000
      4.13300000	      7.37353174	     -1.83437789	     -0.85197822	      0.05138782	      1.32326001	     -0.00145589	     49.57107679	      1.50196914	      1.94448609	     96.29899469	      1.68073452	    -18.95577820	    -23.44699580	      0.00000000	     28.92580042	     -5.23775294	     -1.32024570	     37.81811418	      0.66005061	    -17.06996776	    -13.06018308	      0.00000000	    -64.94722822	      1.55731101	      4.14226919	     52.60889976	     15.74992488	    -63.27518653	     53.38021069	     82.04002844	      0.00000000	      0.00000000	     59.31034029	     15.02070211	    -59.49763424	     46.49402821	     62.99267109	      0.00000000	      0.00000000
      4.15000000	      7.03042005	     -2.45250511	     -1.06987412	      0.05123521	      1.32251090	     -0.00156492	     52.21377941	      2.05408888	      1.51523527	     98.12557521	      1.71261437	    -18.34314049	    -23.33874006	      0.00000000	     26.95879037	     -6.00812964	     -1.35010984	     35.33571379	      0.61672455	    -18.56185748	    -12.54326887	      0.00000000	    -64.63487842	      1.88997601	      4.84873100	     52.64337844	     15.83487717	    -63.22917982	     53.48189855	     82.02676698	      0.00000000	      0.00000000	     59.10356113	     14.90762019	    -59.45014627	     46.39520872	     62.82340134	      0.00000000	      0.00000000
      4.16700000	      6.83098346	     -2.77400641	     -1.57905621	      0.05115238	      1.32202984	     -0.00119261	     54.75953544	      2.65890178	      1.51244015	     99.58711167	      1.73812299	    -17.99084833	    -22.84886458	      0.00000000	     24.91332961	     -6.83024261	     -2.26209237	     33.27729277	      0.58079833	    -19.60948943	    -11.68283421	      0.00000000	    -64.47496612	      1.77260298	      5.42060699	     52.61690175	     15.94318636	    -63.11557636	     53.65349497	     82.14538378	      0.00000000	      0.00000000	     59.00889256	     14.73636776	    -59.33256947	     46.18479387	     62.36816998	      0.00000000	      0.00000000
      4.18300000	      6.55003936	     -3.14560724	     -1.74525305	      0.05102203	      1.32144666	     -0.00126008	     57.35504753	      3.04052594	      1.21838808	    100.67324167	      1.75707954	    -17.80487355	    -22.55099420	      0.00000000	     23.29508431	     -7.49971165	     -2.49580603	     31.82703364	      0.55548653	    -20.46669556	    -11.07630997	      0.00000000	    -64.23515806	      1.96462176	      5.88204107	     52.66378339	     16.03582196	    -63.07826607	     53.71281623	     82.13408539	      0.00000000	      0.00000000	     58.95268319	     14.67368796	    -59.43348848	     46.07745237	     62.08332237	      0.00000000	      0.00000000
      4.20000000	      6.36276524	     -3.39326292	     -1.78557950	      0.05098989	      1.32096332	     -0.00143149	     59.69617340	      3.23106966	      0.93408091	    101.33180963	      1.76857371	    -17.63259359	    -22.29784718	      0.00000000	     21.87335577	     -7.94311410	     -2.47658034	     30.98975256	      0.54087322	    -20.71688755	    -10.85905060	      0.00000000	    -64.08755663	      2.17367140	      6.15073969	     52.71940684	     16.14214138	    -63.00297047	     53.73504330	     81.93433230	      0.00000000	      0.00000000	     58.89452833	     14.59494425	    -59.48607616	     46.03941978	     61.93441247	      0.00000000	      0.00000000
      4.21700000	      6.20725850	     -3.52112163	     -1.85871828	      0.05098307	      1.32064110	     -0.00150730	     61.89684731	      3.40480498	      0.76165756	    101.60280969	      1.77330356	    -17.47179786	    -22.07798488	      0.00000000	     20.72353802	     -8.32461747	     -2.67646249	     30.69010537	      0.53564339	    -21.13894125	    -10.58461502	      0.00000000	    -63.98246535	      2.26773462	      6.33449164	     52.79540757	     16.26782753	    -62.95251603	     53.77147502	     81.80085383	      0.00000000	      0.00000000	     58.90944280	     14.52933504	    -59.58387556	     45.98859813	     61.79295987	      0.00000000	      0.00000000
      4.23300000	      6.04464274	     -3.50995659	     -2.04220790	      0.05096927	      1.32028441	     -0.00126958	     63.98327296	      3.65626179	      0.77048374	    101.45594464	      1.77074028	    -17.42286231	    -21.84050004	      0.00000000	     19.94067852	     -8.68148129	     -3.09497349	     31.14426027	      0.54356988	    -21.48384299	    -10.31412711	      0.00000000	    -63.86483332	      2.14555888	      6.44526675	     52.86938122	     16.40548422	    -62.93970904	     53.83482642	     81.72493965	      0.00000000	      0.00000000	     59.01002193	     14.50099755	    -59.75529467	     45.92061342	     61.60262766	      0.00000000	      0.00000000
